<?xml version="1.0" encoding="utf-8"?><svg xmlns="http://www.w3.org/2000/svg" xmlns:xlink="http://www.w3.org/1999/xlink"><symbol viewBox="0 0 60 50" id="advantages-1" xmlns="http://www.w3.org/2000/svg"><path d="M60 44.768h-5.496A7.034 7.034 0 0147.695 50a7.034 7.034 0 01-6.809-5.232h-19.78A7.034 7.034 0 0114.296 50a7.034 7.034 0 01-6.808-5.232H0V10.465h7.392C8.247 4.556 13.382 0 19.57 0c6.188 0 11.323 4.556 12.179 10.465h7.157v8.14h13.246L60 30.285zM38.906 22.093v6.977h16.052l-4.688-6.977zm-28.125-9.884c0 4.809 3.943 8.721 8.79 8.721 4.845 0 8.788-3.912 8.788-8.72 0-4.81-3.943-8.722-8.789-8.722s-8.789 3.913-8.789 8.721zm-7.265 1.744V29.07H35.39V13.953h-3.64c-.856 5.91-5.99 10.466-12.179 10.466-6.188 0-11.323-4.557-12.178-10.466zm14.297 29.07c0-1.923-1.578-3.488-3.516-3.488-1.939 0-3.516 1.565-3.516 3.488 0 1.924 1.577 3.488 3.516 3.488 1.938 0 3.516-1.564 3.516-3.488zM35.39 41.28v-8.721H3.516v8.721h3.972a7.034 7.034 0 016.809-5.233 7.034 7.034 0 016.809 5.233zm15.82 1.744c0-1.923-1.576-3.488-3.515-3.488-1.938 0-3.515 1.565-3.515 3.488 0 1.924 1.577 3.488 3.515 3.488 1.939 0 3.516-1.564 3.516-3.488zm5.275-1.744v-8.721H38.906v8.721h1.98a7.035 7.035 0 016.81-5.233 7.034 7.034 0 016.808 5.233zM21.328 13.953h-7.031v-3.488h3.516V6.977h3.515z"/></symbol><symbol viewBox="0 0 60 53" id="advantages-2" xmlns="http://www.w3.org/2000/svg"><path d="M55.908 17.543V42.44h2.334c.97 0 1.758.788 1.758 1.76v7.041a1.76 1.76 0 01-1.758 1.76H1.758A1.761 1.761 0 010 51.24V44.2c0-.971.787-1.759 1.758-1.759h2.334V17.543H1.758A1.759 1.759 0 010 15.783v-7.04c0-.972.787-1.759 1.758-1.759h7.57V1.759c0-.971.787-1.76 1.757-1.76h10.877c.97 0 1.758.789 1.758 1.76v5.224h12.56V1.759c0-.971.788-1.76 1.758-1.76h10.877c.97 0 1.758.789 1.758 1.76v5.224h7.57c.97 0 1.757.787 1.757 1.759v7.042c0 .971-.787 1.759-1.758 1.759zM39.796 6.983h7.36V3.518h-7.36zm-26.953 0h7.36V3.518h-7.36zm-9.327 7.042h52.968V10.5H3.516zm52.968 31.933H3.516v3.524h52.968zm-4.091-28.415H7.607V42.44h44.786zM23.72 31.66a1.76 1.76 0 01.577-1.958l3.449-5.84a1.757 1.757 0 112.168 2.768L28 29l3.012.328h3.607a1.758 1.758 0 011.155 3.084l-6.18 6.265c-.333.29-.745.433-1.155.433a1.76 1.76 0 01-1.156-3.085l1.855-2.49.307-.69H25.38c-.75 0-1.417-.475-1.661-1.185zm15.984-5.732c0-.971.787-1.759 1.758-1.759h5.612a1.758 1.758 0 010 3.518h-5.612a1.758 1.758 0 01-1.758-1.759zm-28.536.587c0-.972.788-1.76 1.758-1.76h1.048v-1.048a1.758 1.758 0 113.516 0v1.049h1.048a1.758 1.758 0 010 3.517H17.49v1.05a1.758 1.758 0 11-3.516 0v-1.05h-1.048c-.97 0-1.758-.787-1.758-1.758z"/></symbol><symbol viewBox="0 0 60 56" id="advantages-3" xmlns="http://www.w3.org/2000/svg"><path d="M15.624 39.352h9.518v12.664H6.29L0 41.112l7.67-13.297-3.447-1.992 14.16-3.92 3.69 14.237-3.447-1.993zm-10.549 0h6.489l5.318-9.222-1.006-3.88-3.86 1.067zm0 3.52l3.244 5.624h13.307v-5.625zM30 14.423l-4.76 8.252-10.955-6.332L23.71 0h12.58l7.667 13.296 3.447-1.993-3.69 14.236-14.16-3.92 3.447-1.991zm5.274-9.145l-3.244 5.625 5.318 9.22 3.86 1.07 1.006-3.881zM32.23 3.52h-6.49l-6.652 11.536 4.866 2.813zM60 41.113l-6.29 10.904H38.374V56l-10.47-10.317 10.47-10.316v3.985h6.003l-4.76-8.253 10.956-6.332zm-24.23 7.384h13.88l-3.244-5.625H35.77l-2.854 2.812zm20.17-7.384l-6.654-11.537-4.866 2.812 8.275 14.35z"/></symbol><symbol viewBox="0 0 54 54" id="advantages-4" xmlns="http://www.w3.org/2000/svg"><path d="M43.242 0c.874 0 1.582.708 1.582 1.582v20.991A16.585 16.585 0 0154 37.415C54 46.575 46.575 54 37.415 54a16.585 16.585 0 01-14.842-9.176H1.582A1.582 1.582 0 010 43.242V1.582C0 .708.708 0 1.582 0zM29.953 3.164v8.866a1.58 1.58 0 01-2.399 1.355l-5.142-2.613-5.248 2.667c-1.054.534-2.29-.245-2.29-1.409l-.003-8.866H3.164V41.66h18.215a16.587 16.587 0 014.309-15.972 16.586 16.586 0 0115.972-4.31V3.165zm.844 39.656c0-.874.708-1.582 1.582-1.582h7.382a2.962 2.962 0 002.954-2.953c0-1.689-1.24-3.058-2.954-3.058h-4.407l.94.938c1.472 1.463-.753 3.7-2.224 2.237l-3.636-3.628a1.577 1.577 0 01-.006-2.232l3.629-3.635c1.462-1.47 3.7.753 2.236 2.225l-.928.93h4.396a6.127 6.127 0 016.118 6.118c0 1.756-.63 3.264-1.795 4.428a6.099 6.099 0 01-4.323 1.794H32.38a1.582 1.582 0 01-1.582-1.582zm-2.872-14.895c-5.24 5.241-5.24 13.74 0 18.98 5.241 5.241 13.74 5.241 18.98 0 5.241-5.24 5.241-13.739 0-18.98-5.24-5.24-13.74-5.24-18.98 0zm-1.136-24.76h-8.754v6.291l3.663-1.861c.432-.22.959-.237 1.425-.003l3.666 1.864z"/></symbol><symbol viewBox="0 0 70 50" id="advantages-5" xmlns="http://www.w3.org/2000/svg"><path d="M70 44.767h-5.496A7.035 7.035 0 0157.695 50a7.034 7.034 0 01-6.809-5.233h-19.78A7.035 7.035 0 0124.296 50a7.035 7.035 0 01-6.808-5.233H10V10.465h7.392C18.247 4.556 23.382 0 29.57 0c6.19 0 11.323 4.556 12.18 10.465h7.157v8.14h13.245L70 30.285zM48.906 22.093v6.977h16.052l-4.688-6.977zM20.781 12.21c0 4.81 3.943 8.721 8.79 8.721 4.846 0 8.788-3.912 8.788-8.72 0-4.81-3.942-8.722-8.789-8.722-4.846 0-8.789 3.913-8.789 8.721zm-7.266 1.744V29.07h31.876V13.953h-3.642c-.856 5.91-5.99 10.466-12.179 10.466-6.188 0-11.323-4.557-12.178-10.466zm14.297 29.07c0-1.923-1.577-3.488-3.515-3.488-1.939 0-3.516 1.565-3.516 3.488 0 1.924 1.577 3.489 3.516 3.489 1.938 0 3.515-1.565 3.515-3.489zm17.579-1.744v-8.72H13.515v8.72h3.973a7.035 7.035 0 016.809-5.232 7.034 7.034 0 016.809 5.232zm15.82 1.744c0-1.923-1.577-3.488-3.516-3.488-1.938 0-3.515 1.565-3.515 3.488 0 1.924 1.577 3.489 3.515 3.489 1.939 0 3.516-1.565 3.516-3.489zm5.273-1.744v-8.72H48.906v8.72h1.98a7.034 7.034 0 016.81-5.232 7.035 7.035 0 016.808 5.232zM31.328 13.953h-7.031v-3.488h3.515V6.977h3.516z"/><path d="M7 19h11l-4 8h11L5 45l5-11H0z"/></symbol><symbol viewBox="0 0 70 61" id="advantages-6" xmlns="http://www.w3.org/2000/svg"><path d="M55.909 17.543V42.44h2.333c.97 0 1.758.788 1.758 1.76v7.041c0 .971-.787 1.759-1.758 1.759H1.758A1.76 1.76 0 010 51.24V44.2c0-.971.787-1.759 1.758-1.759H4.09V17.543H1.758A1.76 1.76 0 010 15.783v-7.04c0-.972.787-1.759 1.758-1.759h7.57V1.759C9.328.787 10.115 0 11.085 0h10.877c.97 0 1.757.787 1.757 1.759v5.224h12.562V1.759A1.757 1.757 0 0138.038 0h10.877c.97 0 1.757.787 1.757 1.759v5.224h7.57c.97 0 1.758.787 1.758 1.759v7.042c0 .971-.787 1.759-1.758 1.759zM39.796 6.983h7.36V3.518h-7.36zm-26.953 0h7.36V3.518h-7.36zm-9.327 7.042h52.968v-3.524H3.516zm52.968 31.933H3.516v3.524h52.968zm-4.091-28.415H7.607V42.44h44.786zM23.72 31.66a1.759 1.759 0 01.577-1.958l3.448-5.84a1.757 1.757 0 112.17 2.768L28 29l3.012.328h3.607a1.758 1.758 0 011.155 3.084l-6.18 6.265a1.752 1.752 0 01-2.48-.17 1.76 1.76 0 01.17-2.481l1.854-2.491.307-.69H25.38c-.75 0-1.417-.476-1.661-1.185zm15.984-5.732c0-.97.787-1.759 1.758-1.759h5.612a1.758 1.758 0 010 3.518h-5.612a1.758 1.758 0 01-1.758-1.759zm-28.535.587c0-.972.787-1.76 1.757-1.76h1.048v-1.048a1.758 1.758 0 113.516 0v1.049h1.049a1.758 1.758 0 010 3.517H17.49v1.05a1.758 1.758 0 11-3.516 0v-1.05h-1.048c-.97 0-1.757-.787-1.757-1.758z"/><path d="M52 35h11l-4 8h11L50 61l5-11H45z"/></symbol><symbol viewBox="0 0 71 63" id="advantages-7" xmlns="http://www.w3.org/2000/svg"><path d="M15.624 39.351h9.518v12.665H6.289L0 41.11l7.669-13.296-3.447-1.992 14.16-3.92 3.69 14.237-3.447-1.993zm-10.55 0h6.49l5.318-9.22-1.006-3.882-3.86 1.069zm.001 3.52l3.244 5.625h13.307v-5.625zM30 14.424l-4.76 8.252-10.955-6.332L23.711 0h12.578l7.668 13.296 3.447-1.993-3.69 14.236-14.16-3.92 3.447-1.991zm5.274-9.145l-3.244 5.626 5.318 9.22 3.86 1.068 1.006-3.88zM32.23 3.52h-6.49l-6.652 11.536 4.866 2.813zM60 41.111l-6.29 10.905H38.374V56l-10.47-10.316 10.47-10.317v3.984h6.003l-4.76-8.252 10.956-6.332zm-24.23 7.385h13.88l-3.244-5.625H35.77l-2.854 2.813zm20.17-7.385l-6.654-11.536-4.866 2.813 8.276 14.348z"/><path d="M53 37h11l-4 8h11L51 63l5-11H46z"/></symbol><symbol viewBox="0 0 58 58" id="advantages-8" xmlns="http://www.w3.org/2000/svg"><path d="M47.242 0c.874 0 1.582.708 1.582 1.582v20.991A16.585 16.585 0 0158 37.415C58 46.575 50.574 54 41.415 54a16.585 16.585 0 01-14.842-9.176H5.582A1.582 1.582 0 014 43.242V1.582C4 .708 4.708 0 5.582 0zM33.953 3.164v8.866a1.58 1.58 0 01-2.399 1.355l-5.142-2.613-5.248 2.667c-1.053.534-2.29-.245-2.289-1.409l-.004-8.866H7.164V41.66H25.38a16.587 16.587 0 014.309-15.972 16.587 16.587 0 0115.972-4.31V3.165zm.844 39.656c0-.873.708-1.582 1.582-1.582h7.382a2.962 2.962 0 002.954-2.953c0-1.69-1.24-3.059-2.954-3.059h-4.407l.94.939c1.472 1.463-.753 3.7-2.224 2.237l-3.636-3.629a1.578 1.578 0 01-.006-2.23l3.628-3.635c1.464-1.472 3.7.753 2.238 2.224l-.929.93h4.396a6.127 6.127 0 016.118 6.118c0 1.756-.63 3.264-1.795 4.428a6.097 6.097 0 01-4.323 1.794H36.38a1.582 1.582 0 01-1.582-1.582zm-2.872-14.895c-5.24 5.241-5.24 13.74 0 18.98 5.241 5.241 13.74 5.241 18.98 0 5.241-5.24 5.241-13.739 0-18.98-5.24-5.241-13.74-5.241-18.98 0zM30.789 3.164h-8.754v6.292l3.663-1.861c.432-.22.959-.237 1.425-.002l3.666 1.863z"/><path d="M7 32h11l-4 8h11L5 58l5-11H0z"/></symbol><symbol viewBox="0 0 22 24" id="basket" xmlns="http://www.w3.org/2000/svg"><g clip-path="url(#iclip0)"><path d="M10.363 18.443a2.046 2.046 0 00-2.045 2.042 2.046 2.046 0 004.09 0 2.046 2.046 0 00-2.045-2.042zm6.134 0a2.046 2.046 0 00-2.045 2.042 2.046 2.046 0 004.089 0 2.046 2.046 0 00-2.044-2.042zm3.978-8.199L7.413 6.891a.614.614 0 00-.75.73L8.67 16.4h-.786L5.482 5.895a.613.613 0 00-.474-.464l-4.27-.882A.614.614 0 00.489 5.75l3.885.802L6.797 17.15a.613.613 0 00.598.477h12.07a.615.615 0 00.607-.53l.858-6.175a.613.613 0 00-.455-.678zm-8.14 3.91a.613.613 0 01-1.227 0v-2.696a.613.613 0 011.227 0v2.696zm2.625 0a.613.613 0 01-1.227 0v-1.88a.613.613 0 011.227 0v1.88zm2.625 0a.613.613 0 01-1.227 0v-1.226a.613.613 0 011.227 0v1.226z"/></g><path fill-rule="evenodd" clip-rule="evenodd" d="M16.268 4.568a2.996 2.996 0 00-1.693-.523c-.627 0-1.21.193-1.693.523-.28-.843-.492-1.752-.492-2.383C12.39.98 13.37 0 14.575 0s2.185.98 2.185 2.185c0 .631-.212 1.54-.492 2.383zm-4.722 2.274l.024.006v-.011l-.024.005zm4.972 1.217c-1.333-.33-2.766-.681-4.129-1.013a2.185 2.185 0 114.129 1.013zm4.436 1.103c-.866-.217-2.155-.538-3.618-.9a2.995 2.995 0 00.243-1.425c.87.18 1.762.45 2.308.765.596.344.969.928 1.067 1.56zM9.869 6.439c-.36-.086-.706-.167-1.03-.243a2.19 2.19 0 01-.376-2.667 2.188 2.188 0 013.147-.7c.098.738.338 1.599.61 2.353a3.01 3.01 0 00-.449.774c-.628.113-1.305.278-1.902.483zm10.124.075a3.43 3.43 0 01-.217.114c-.696-.295-1.587-.526-2.397-.672a3.01 3.01 0 00-.449-.774c.262-.727.494-1.553.599-2.273.095-.067.189-.128.278-.18a2.188 2.188 0 012.986.8 2.188 2.188 0 01-.8 2.985z"/><defs><clipPath id="iclip0"><path transform="translate(0 3.064)" d="M0 0h20.936v20.936H0z"/></clipPath></defs></symbol><symbol viewBox="0 0 344.96 344.96" id="check" xmlns="http://www.w3.org/2000/svg"><g data-name="Слой 2"><path d="M321.85 86.24l-40-23.11-23.1-40H212.5L172.48 0l-40 23.11H86.24l-23.11 40-40 23.1v46.21L0 172.48l23.11 40v46.21l40 23.11 23.11 40h46.21l40 23.1 40-23.11h46.21l23.11-40 40-23.11V212.5l23.11-40-23.11-40V86.24zM156.91 243.07a16.79 16.79 0 01-23.34 0l-50.45-50.44a16.19 16.19 0 010-22.89l13.35-13.35a16.19 16.19 0 0122.89 0l25.87 25.87 80.34-80.35a16.19 16.19 0 0122.89 0l13.35 13.35a16.19 16.19 0 010 22.89z" data-name="Capa 1"/></g></symbol><symbol viewBox="0 0 24 24" id="fb" xmlns="http://www.w3.org/2000/svg"><path d="M13.397 20.997v-8.196h2.765l.411-3.209h-3.176V7.548c0-.926.258-1.56 1.587-1.56h1.684v-2.86A22.108 22.108 0 0014.201 3c-2.444 0-4.122 1.492-4.122 4.231v2.355H7.332v3.21h2.753v8.201h3.312z"/></symbol><symbol viewBox="0 0 24 24" id="instagram" xmlns="http://www.w3.org/2000/svg"><path d="M11.999 7.377a4.624 4.624 0 100 9.248 4.624 4.624 0 000-9.248zm0 7.627a3.004 3.004 0 110-6.008 3.004 3.004 0 010 6.008zm4.807-6.719a1.078 1.078 0 100-2.156 1.078 1.078 0 000 2.156z"/><path d="M20.533 6.11A4.605 4.605 0 0017.9 3.48a6.607 6.607 0 00-2.186-.42c-.963-.042-1.268-.054-3.71-.054s-2.755 0-3.71.054a6.554 6.554 0 00-2.184.42 4.6 4.6 0 00-2.633 2.63 6.585 6.585 0 00-.419 2.186c-.043.962-.056 1.267-.056 3.71 0 2.442 0 2.753.056 3.71.015.748.156 1.486.419 2.187a4.61 4.61 0 002.634 2.632 6.583 6.583 0 002.185.45c.963.042 1.268.055 3.71.055s2.755 0 3.71-.055a6.616 6.616 0 002.186-.42 4.613 4.613 0 002.633-2.632c.263-.7.404-1.438.419-2.186.043-.962.056-1.267.056-3.71s0-2.753-.056-3.71a6.583 6.583 0 00-.421-2.217zm-1.218 9.533a5.046 5.046 0 01-.311 1.688 2.987 2.987 0 01-1.712 1.71c-.535.2-1.1.305-1.67.312-.95.044-1.218.055-3.654.055-2.438 0-2.687 0-3.655-.055a4.961 4.961 0 01-1.67-.311 2.984 2.984 0 01-1.718-1.711 5.08 5.08 0 01-.311-1.67c-.043-.95-.053-1.217-.053-3.653 0-2.437 0-2.686.053-3.655a5.038 5.038 0 01.311-1.687c.305-.79.93-1.41 1.719-1.712a5.01 5.01 0 011.669-.311c.95-.043 1.218-.055 3.655-.055s2.687 0 3.654.055a4.96 4.96 0 011.67.31 2.99 2.99 0 011.712 1.713 5.06 5.06 0 01.311 1.669c.043.95.054 1.218.054 3.655 0 2.436 0 2.698-.043 3.654h-.011v-.001z"/></symbol><symbol viewBox="0 0 11 21" id="next" xmlns="http://www.w3.org/2000/svg"><path d="M10.775 10.118L1.639.893A.76.76 0 00.557.895.782.782 0 00.558 1.99l8.592 8.676-8.592 8.676c-.3.302-.3.793-.002 1.096a.758.758 0 001.083.001l9.136-9.224a.78.78 0 000-1.098z"/></symbol><symbol viewBox="0 0 32 32" id="phone" xmlns="http://www.w3.org/2000/svg"><path d="M1.894 12.32c-.712-1.908-.986-3.488-.868-4.973.1-1.188.58-2.213 1.43-3.059l2.333-2.325C5.457 1.33 6.218 1 7.01 1c.798 0 1.553.33 2.196.957.425.392.855.827 1.266 1.25.213.217.419.428.637.646l1.86 1.852c.68.672 1.036 1.449 1.036 2.238 0 .79-.362 1.567-1.036 2.238-.194.193-.387.386-.574.578-.53.541-1.08 1.094-1.667 1.623.419.964 1.017 1.908 1.91 3.034 1.766 2.157 3.613 3.835 5.647 5.122.206.13.437.248.687.372.2.1.411.206.617.324l2.234-2.225c.655-.653 1.423-1.001 2.222-1.001.798 0 1.56.348 2.196 1.006l3.75 3.737c1.342 1.337 1.342 3.09.013 4.469-.287.299-.587.59-.88.87-.431.417-.843.809-1.204 1.244a.133.133 0 01-.026.03C26.878 30.466 25.63 31 24.076 31c-.143 0-.28-.006-.424-.012-2.315-.15-4.392-1.02-5.946-1.754-4.081-1.97-7.657-4.755-10.627-8.292-2.446-2.928-4.093-5.67-5.185-8.622zm1.441-.51c1.036 2.785 2.603 5.383 4.93 8.175 2.827 3.369 6.233 6.023 10.115 7.895 1.429.677 3.332 1.473 5.379 1.603.105.006.218.013.324.013 1.104 0 1.96-.361 2.677-1.132.411-.491.867-.926 1.304-1.349.293-.28.568-.547.83-.827.761-.79.767-1.597.019-2.343l-3.763-3.742c-.243-.261-.63-.553-1.104-.553-.387 0-.78.192-1.143.553l-2.333 2.325c-.106.105-.43.422-.93.422-.2 0-.4-.05-.605-.155-.025-.013-.044-.025-.069-.037a7.588 7.588 0 00-.686-.373c-.269-.137-.556-.274-.824-.448-2.172-1.374-4.143-3.158-6.015-5.458-1.042-1.305-1.71-2.4-2.19-3.55-.007-.018-.013-.03-.019-.05-.125-.372-.206-.863.312-1.38l.03-.03c.6-.53 1.143-1.082 1.723-1.666.193-.193.387-.392.58-.584.388-.386.587-.777.587-1.163s-.2-.777-.586-1.162l-1.86-1.853c-.218-.224-.437-.442-.649-.66-.424-.428-.817-.832-1.235-1.217-.356-.361-.743-.541-1.123-.541-.388 0-.787.18-1.149.528L3.541 5.364a3.285 3.285 0 00-.992 2.113c-.1 1.25.144 2.623.786 4.333z"/></symbol><symbol viewBox="0 0 24 30" id="place" xmlns="http://www.w3.org/2000/svg"><path d="M18.199 12.256c0 3.456-2.782 6.273-6.208 6.273s-6.208-2.823-6.208-6.279c0-3.455 2.782-6.272 6.208-6.272s6.208 2.823 6.208 6.278zm-1.488 0c0-2.626-2.12-4.768-4.72-4.768-2.6 0-4.72 2.142-4.72 4.768 0 2.627 2.114 4.77 4.72 4.77s4.72-2.143 4.72-4.77zm7.29-.14c0 .773-.074 1.546-.22 2.3-.018.117-.042.24-.079.388a11.983 11.983 0 01-.808 2.4c-1.227 2.927-3.93 7.481-9.792 12.397a1.717 1.717 0 01-2.199 0C5.035 24.679 2.332 20.13 1.1 17.179a11.672 11.672 0 01-.802-2.382c-.066-.264-.085-.405-.085-.405a12.382 12.382 0 01-.158-3.455C.625 4.917 5.576.215 11.566.007 11.706 0 11.85 0 11.99 0 18.606 0 23.988 5.438 24 12.115zm-1.502.005c0-5.984-4.92-10.82-10.879-10.611-5.248.184-9.58 4.302-10.084 9.574a10.918 10.918 0 00.14 3.05c0 .013.006.025.006.038.006.03.025.128.06.288.165.73.402 1.436.712 2.111 1.178 2.817 3.76 7.144 9.39 11.87a.255.255 0 00.153.055.241.241 0 00.152-.055c5.63-4.72 8.206-9.047 9.379-11.845.315-.7.552-1.406.716-2.13a11.112 11.112 0 00.255-2.345z"/></symbol><symbol viewBox="0 0 11 21" id="prev" xmlns="http://www.w3.org/2000/svg"><path d="M.225 10.118L9.36.893a.76.76 0 011.083.002.782.782 0 01-.001 1.096L1.85 10.667l8.592 8.676c.3.302.3.793.001 1.096a.758.758 0 01-1.083.001L.225 11.216a.78.78 0 010-1.098z"/></symbol><symbol viewBox="0 0 14 14" id="star" xmlns="http://www.w3.org/2000/svg"><path d="M13.98 5.003a.408.408 0 00-.331-.275l-4.34-.622L7.368.226a.412.412 0 00-.736 0l-1.941 3.88-4.34.622a.408.408 0 00-.331.275.4.4 0 00.104.415l3.14 3.02-.741 4.265a.403.403 0 00.163.396.417.417 0 00.432.03L7 11.117l3.881 2.014c.139.071.306.06.432-.03a.402.402 0 00.163-.397l-.741-4.265 3.14-3.02a.4.4 0 00.105-.415z"/></symbol><symbol viewBox="0 0 16 16" id="telegram" xmlns="http://www.w3.org/2000/svg"><path d="M14.629 3.698l-2.012 9.618c-.152.679-.548.848-1.11.528l-3.066-2.29-1.48 1.442c-.163.166-.3.305-.616.305l.22-3.165 5.683-5.204c.247-.223-.054-.347-.384-.123L4.839 9.29l-3.024-.959c-.658-.208-.67-.667.137-.986L13.78 2.727c.548-.208 1.027.124.849.971z"/></symbol><symbol viewBox="0 0 16 16" id="viber" xmlns="http://www.w3.org/2000/svg"><path d="M8 1.335c-1.071.013-3.374.19-4.662 1.37-.958.948-1.292 2.35-1.331 4.084-.033 1.728-.072 4.973 3.058 5.856v1.346s-.02.538.337.648c.438.14.688-.275 1.105-.72l.778-.879c2.142.178 3.782-.232 3.97-.293.435-.139 2.883-.451 3.283-3.696.41-3.351-.2-5.463-1.301-6.418h-.007c-.332-.306-1.668-1.279-4.652-1.29 0 0-.222-.014-.578-.008zm.037.942a7.02 7.02 0 01.488.011c2.527.007 3.732.767 4.017 1.023.927.794 1.405 2.697 1.055 5.495-.332 2.713-2.317 2.885-2.685 3.002-.156.05-1.6.406-3.42.289 0 0-1.356 1.634-1.78 2.055-.067.074-.146.095-.196.085-.071-.018-.093-.107-.089-.229l.013-2.233c-2.655-.733-2.498-3.5-2.47-4.946.033-1.446.304-2.628 1.113-3.43 1.088-.982 3.043-1.115 3.953-1.122zm.2 1.446a.166.166 0 100 .332 3.136 3.136 0 012.242.883c.606.588.9 1.378.912 2.411 0 .092.074.167.167.167V7.51a.167.167 0 00.168-.165 3.588 3.588 0 00-1.009-2.646c-.66-.645-1.496-.977-2.48-.977zm-2.198.382a.523.523 0 00-.342.067H5.69a2.61 2.61 0 00-.637.523 1.003 1.003 0 00-.256.525.71.71 0 00.026.302l.01.006c.172.504.396.988.67 1.444a8.48 8.48 0 001.29 1.762l.015.022.024.017.015.018.017.015c.532.505 1.127.94 1.769 1.295.734.4 1.18.588 1.447.667v.004c.078.024.15.034.221.034.228-.016.444-.109.613-.262a2.53 2.53 0 00.517-.638v-.004c.128-.241.085-.469-.1-.623-.37-.323-.77-.61-1.195-.857-.285-.155-.574-.061-.69.095l-.25.315c-.129.156-.361.134-.361.134l-.007.004C7.093 8.527 6.63 6.772 6.63 6.772s-.022-.239.139-.36l.312-.252c.15-.122.254-.41.094-.695a7.498 7.498 0 00-.856-1.194.475.475 0 00-.28-.167zm2.486.495c-.221 0-.221.334.003.334A2.098 2.098 0 0110 5.572 1.94 1.94 0 0110.5 7a.168.168 0 00.167.165l.007.009a.169.169 0 00.167-.167c.015-.662-.191-1.218-.595-1.663C9.84 4.9 9.273 4.65 8.549 4.6h-.024zm.274.898c-.228-.006-.236.335-.01.341.55.029.816.306.851.877a.166.166 0 00.165.163h.007a.168.168 0 00.16-.178c-.039-.744-.445-1.164-1.166-1.202H8.8z"/></symbol><symbol viewBox="0 0 24 24" id="vk" xmlns="http://www.w3.org/2000/svg"><path d="M21.579 6.855c.14-.465 0-.806-.662-.806h-2.193c-.558 0-.813.295-.953.619 0 0-1.115 2.719-2.695 4.482-.51.513-.743.675-1.021.675-.139 0-.341-.162-.341-.627V6.855c0-.558-.161-.806-.626-.806H9.642c-.348 0-.558.258-.558.504 0 .528.79.65.871 2.138v3.228c0 .707-.127.836-.407.836-.743 0-2.551-2.73-3.624-5.853-.209-.607-.42-.852-.98-.852H2.752c-.627 0-.752.295-.752.619 0 .582.743 3.462 3.461 7.27 1.812 2.602 4.363 4.012 6.687 4.012 1.393 0 1.565-.313 1.565-.853v-1.966c0-.626.133-.752.574-.752.324 0 .882.164 2.183 1.417 1.486 1.486 1.732 2.153 2.567 2.153h2.192c.626 0 .939-.313.759-.931-.197-.615-.907-1.51-1.849-2.57-.512-.603-1.277-1.253-1.51-1.578-.325-.42-.231-.604 0-.976.001 0 2.672-3.761 2.95-5.04z"/></symbol><symbol viewBox="0 0 16 16" id="whatsapp" xmlns="http://www.w3.org/2000/svg"><path fill-rule="evenodd" clip-rule="evenodd" d="M12.269 3.755A5.947 5.947 0 008.035 2 5.994 5.994 0 002.05 7.985a5.98 5.98 0 00.799 2.992L2 14.077l3.173-.832c.877.477 1.86.728 2.86.728h.002a5.993 5.993 0 005.533-8.276 5.953 5.953 0 00-1.3-1.942zm-4.234 9.208h-.002c-.89 0-1.765-.24-2.532-.694l-.181-.108-1.883.494.502-1.835-.118-.188a4.965 4.965 0 01-.76-2.647 4.982 4.982 0 016.88-4.597c.604.25 1.152.618 1.613 1.081a4.946 4.946 0 011.455 3.52 4.982 4.982 0 01-4.974 4.974zm2.729-3.726c-.15-.075-.885-.436-1.022-.486-.137-.05-.236-.075-.336.074-.1.15-.387.486-.474.586-.087.1-.175.112-.324.038-.15-.075-.631-.233-1.203-.742a4.505 4.505 0 01-.832-1.036c-.087-.15-.009-.231.066-.306.068-.066.15-.174.224-.262.075-.087.1-.149.15-.249.05-.1.025-.187-.013-.262-.037-.075-.337-.811-.461-1.11-.121-.29-.244-.252-.336-.256a6.418 6.418 0 00-.286-.005.55.55 0 00-.4.186c-.137.15-.523.512-.523 1.248s.536 1.447.61 1.547c.075.1 1.055 1.61 2.555 2.258.358.154.636.246.853.315.358.114.684.098.942.06.287-.043.885-.362 1.01-.711.124-.35.124-.649.087-.711-.038-.063-.138-.101-.287-.176z"/></symbol></svg>