<svg xmlns="http://www.w3.org/2000/svg" width="71" height="63" viewBox="0 0 71 63"><g><g><path fill="#1379a8" d="M15.624 39.351h9.518v12.665H6.289L0 41.11l7.669-13.296-3.447-1.992 14.16-3.92 3.69 14.237-3.447-1.993zm-10.55 0h6.49l5.318-9.22-1.006-3.882-3.86 1.069zm.001 3.52l3.244 5.625h13.307v-5.625zM30 14.424l-4.76 8.252-10.955-6.332L23.711 0h12.578l7.668 13.296 3.447-1.993-3.69 14.236-14.16-3.92 3.447-1.991zm5.274-9.145l-3.244 5.626 5.318 9.22 3.86 1.068 1.006-3.88zM32.23 3.52h-6.49l-6.652 11.536 4.866 2.813zM60 41.111l-6.29 10.905H38.374V56l-10.47-10.316 10.47-10.317v3.984h6.003l-4.76-8.252 10.956-6.332zm-24.23 7.385h13.88l-3.244-5.625H35.77l-2.854 2.813zm20.17-7.385l-6.654-11.536-4.866 2.813 8.276 14.348z"/></g><g><path fill="#fed34e" d="M53 37h11l-4 8h11L51 63l5-11H46z"/></g></g></svg>