<svg xmlns="http://www.w3.org/2000/svg" width="58" height="58" viewBox="0 0 58 58"><g><g><path fill="#1379a8" d="M47.242 0c.874 0 1.582.708 1.582 1.582v20.991A16.585 16.585 0 0 1 58 37.415C58 46.575 50.574 54 41.415 54a16.585 16.585 0 0 1-14.842-9.176H5.582A1.582 1.582 0 0 1 4 43.242V1.582C4 .708 4.708 0 5.582 0zM33.953 3.164v8.866a1.58 1.58 0 0 1-2.399 1.355l-5.142-2.613-5.248 2.667c-1.053.534-2.29-.245-2.289-1.409l-.004-8.866H7.164V41.66H25.38a16.587 16.587 0 0 1 4.309-15.972 16.587 16.587 0 0 1 15.972-4.31V3.165zm.844 39.656c0-.873.708-1.582 1.582-1.582h7.382a2.962 2.962 0 0 0 2.954-2.953c0-1.69-1.24-3.059-2.954-3.059h-4.407l.94.939c1.472 1.463-.753 3.7-2.224 2.237l-3.636-3.629a1.578 1.578 0 0 1-.006-2.23l3.628-3.635c1.464-1.472 3.7.753 2.238 2.224l-.929.93h4.396a6.127 6.127 0 0 1 6.118 6.118c0 1.756-.63 3.264-1.795 4.428a6.097 6.097 0 0 1-4.323 1.794H36.38a1.582 1.582 0 0 1-1.582-1.582zm-2.872-14.895c-5.24 5.241-5.24 13.74 0 18.98 5.241 5.241 13.74 5.241 18.98 0 5.241-5.24 5.241-13.739 0-18.98-5.24-5.241-13.74-5.241-18.98 0zM30.789 3.164h-8.754v6.292l3.663-1.861c.432-.22.959-.237 1.425-.002l3.666 1.863z"/></g><g><path fill="#fed34e" d="M7 32h11l-4 8h11L5 58l5-11H0z"/></g></g></svg>