<svg xmlns="http://www.w3.org/2000/svg" width="60" height="56" viewBox="0 0 60 56"><g><g><path fill="#f07c00" d="M15.624 39.352h9.518v12.664H6.29L0 41.112 7.67 27.815l-3.447-1.992 14.16-3.92 3.69 14.237-3.447-1.993zm-10.549 0h6.489l5.318-9.222-1.006-3.88-3.86 1.067zm0 3.52l3.244 5.624h13.307v-5.625zM30 14.423l-4.76 8.252-10.955-6.332L23.71 0h12.58l7.667 13.296 3.447-1.993-3.69 14.236-14.16-3.92 3.447-1.991zm5.274-9.145l-3.244 5.625 5.318 9.22 3.86 1.07 1.006-3.881zM32.23 3.52h-6.49l-6.652 11.536 4.866 2.813zM60 41.113l-6.29 10.904H38.374V56l-10.47-10.317 10.47-10.316v3.985h6.003l-4.76-8.253 10.956-6.332zm-24.23 7.384h13.88l-3.244-5.625H35.77l-2.854 2.812zm20.17-7.384l-6.654-11.537-4.866 2.812 8.275 14.35z"/></g></g></svg>