<svg xmlns="http://www.w3.org/2000/svg" width="60" height="50" viewBox="0 0 60 50"><g><g><path fill="#f07c00" d="M60 44.768h-5.496A7.034 7.034 0 0 1 47.695 50a7.034 7.034 0 0 1-6.809-5.232h-19.78A7.034 7.034 0 0 1 14.296 50a7.034 7.034 0 0 1-6.808-5.232H0V10.465h7.392C8.247 4.556 13.382 0 19.57 0c6.188 0 11.323 4.556 12.179 10.465h7.157v8.14h13.246L60 30.285zM38.906 22.093v6.977h16.052l-4.688-6.977zm-28.125-9.884c0 4.809 3.943 8.721 8.79 8.721 4.845 0 8.788-3.912 8.788-8.72 0-4.81-3.943-8.722-8.789-8.722s-8.789 3.913-8.789 8.721zm-7.265 1.744V29.07H35.39V13.953H31.75c-.856 5.91-5.99 10.466-12.179 10.466-6.188 0-11.323-4.557-12.178-10.466zm14.297 29.07c0-1.923-1.578-3.488-3.516-3.488-1.939 0-3.516 1.565-3.516 3.488 0 1.924 1.577 3.488 3.516 3.488 1.938 0 3.516-1.564 3.516-3.488zM35.39 41.28v-8.721H3.516v8.721h3.972a7.034 7.034 0 0 1 6.809-5.233 7.034 7.034 0 0 1 6.809 5.233zm15.82 1.744c0-1.923-1.576-3.488-3.515-3.488-1.938 0-3.515 1.565-3.515 3.488 0 1.924 1.577 3.488 3.515 3.488 1.939 0 3.516-1.564 3.516-3.488zm5.275-1.744v-8.721H38.906v8.721h1.98a7.035 7.035 0 0 1 6.81-5.233 7.034 7.034 0 0 1 6.808 5.233zM21.328 13.953h-7.031v-3.488h3.516V6.977h3.515z"/></g></g></svg>