<svg xmlns="http://www.w3.org/2000/svg" width="70" height="50" viewBox="0 0 70 50"><g><g><path fill="#1379a8" d="M70 44.767h-5.496A7.035 7.035 0 0 1 57.695 50a7.034 7.034 0 0 1-6.809-5.233h-19.78A7.035 7.035 0 0 1 24.296 50a7.035 7.035 0 0 1-6.808-5.233H10V10.465h7.392C18.247 4.556 23.382 0 29.57 0 35.76 0 40.893 4.556 41.75 10.465h7.157v8.14h13.245L70 30.285zM48.906 22.093v6.977h16.052l-4.688-6.977zM20.781 12.21c0 4.81 3.943 8.721 8.79 8.721 4.846 0 8.788-3.912 8.788-8.72 0-4.81-3.942-8.722-8.789-8.722-4.846 0-8.789 3.913-8.789 8.721zm-7.266 1.744V29.07h31.876V13.953h-3.642c-.856 5.91-5.99 10.466-12.179 10.466-6.188 0-11.323-4.557-12.178-10.466zm14.297 29.07c0-1.923-1.577-3.488-3.515-3.488-1.939 0-3.516 1.565-3.516 3.488 0 1.924 1.577 3.489 3.516 3.489 1.938 0 3.515-1.565 3.515-3.489zm17.579-1.744v-8.72H13.515v8.72h3.973a7.035 7.035 0 0 1 6.809-5.232 7.034 7.034 0 0 1 6.809 5.232zm15.82 1.744c0-1.923-1.577-3.488-3.516-3.488-1.938 0-3.515 1.565-3.515 3.488 0 1.924 1.577 3.489 3.515 3.489 1.939 0 3.516-1.565 3.516-3.489zm5.273-1.744v-8.72H48.906v8.72h1.98a7.034 7.034 0 0 1 6.81-5.232 7.035 7.035 0 0 1 6.808 5.232zM31.328 13.953h-7.031v-3.488h3.515V6.977h3.516z"/></g><g><path fill="#fed34e" d="M7 19h11l-4 8h11L5 45l5-11H0z"/></g></g></svg>