<svg xmlns="http://www.w3.org/2000/svg" width="54" height="54" viewBox="0 0 54 54"><g><g><path fill="#f07c00" d="M43.242 0c.874 0 1.582.708 1.582 1.582v20.991A16.585 16.585 0 0 1 54 37.415C54 46.575 46.575 54 37.415 54a16.585 16.585 0 0 1-14.842-9.176H1.582A1.582 1.582 0 0 1 0 43.242V1.582C0 .708.708 0 1.582 0zM29.953 3.164v8.866a1.58 1.58 0 0 1-2.399 1.355l-5.142-2.613-5.248 2.667c-1.054.534-2.29-.245-2.29-1.409l-.003-8.866H3.164V41.66h18.215a16.587 16.587 0 0 1 4.309-15.972 16.586 16.586 0 0 1 15.972-4.31V3.165zm.844 39.656c0-.874.708-1.582 1.582-1.582h7.382a2.962 2.962 0 0 0 2.954-2.953c0-1.689-1.24-3.058-2.954-3.058h-4.407l.94.938c1.472 1.463-.753 3.7-2.224 2.237l-3.636-3.628a1.577 1.577 0 0 1-.006-2.232l3.629-3.635c1.462-1.47 3.7.753 2.236 2.225l-.928.93h4.396a6.127 6.127 0 0 1 6.118 6.118c0 1.756-.63 3.264-1.795 4.428a6.099 6.099 0 0 1-4.323 1.794H32.38a1.582 1.582 0 0 1-1.582-1.582zm-2.872-14.895c-5.24 5.241-5.24 13.74 0 18.98 5.241 5.241 13.74 5.241 18.98 0 5.241-5.24 5.241-13.739 0-18.98-5.24-5.24-13.74-5.24-18.98 0zm-1.136-24.76h-8.754v6.291l3.663-1.861c.432-.22.959-.237 1.425-.003l3.666 1.864z"/></g></g></svg>