<svg xmlns="http://www.w3.org/2000/svg" width="70" height="61" viewBox="0 0 70 61"><g><g><path fill="#1379a8" d="M55.909 17.543V42.44h2.333c.97 0 1.758.788 1.758 1.76v7.041c0 .971-.787 1.759-1.758 1.759H1.758C.788 53 0 52.212 0 51.24V44.2c0-.971.787-1.759 1.758-1.759H4.09V17.543H1.758c-.97 0-1.758-.788-1.758-1.76V8.743c0-.972.787-1.759 1.758-1.759h7.57V1.759C9.328.787 10.115 0 11.085 0h10.877c.97 0 1.757.787 1.757 1.759v5.224h12.562V1.759C36.28.787 37.068 0 38.038 0h10.877c.97 0 1.757.787 1.757 1.759v5.224h7.57c.97 0 1.758.787 1.758 1.759v7.042c0 .971-.787 1.759-1.758 1.759zM39.796 6.983h7.36V3.518h-7.36zm-26.953 0h7.36V3.518h-7.36zm-9.327 7.042h52.968v-3.524H3.516zm52.968 31.933H3.516v3.524h52.968zm-4.091-28.415H7.607V42.44h44.786zM23.72 31.66a1.759 1.759 0 0 1 .577-1.958l3.448-5.84a1.757 1.757 0 1 1 2.17 2.768L28 29l3.012.328h3.607a1.758 1.758 0 0 1 1.155 3.084l-6.18 6.265a1.752 1.752 0 0 1-2.48-.17 1.76 1.76 0 0 1 .17-2.481l1.854-2.491.307-.69H25.38c-.75 0-1.417-.476-1.661-1.185zm15.984-5.732c0-.97.787-1.759 1.758-1.759h5.612a1.758 1.758 0 0 1 0 3.518h-5.612c-.971 0-1.758-.787-1.758-1.759zm-28.535.587c0-.972.787-1.76 1.757-1.76h1.048v-1.048a1.758 1.758 0 1 1 3.516 0v1.049h1.049a1.758 1.758 0 0 1 0 3.517H17.49v1.05a1.758 1.758 0 1 1-3.516 0v-1.05h-1.048c-.97 0-1.757-.787-1.757-1.758z"/></g><g><path fill="#fed34e" d="M52 35h11l-4 8h11L50 61l5-11H45z"/></g></g></svg>