<svg xmlns="http://www.w3.org/2000/svg" width="32" height="32" viewBox="0 0 32 32"><g><g><path fill="none" stroke="#f07c00" stroke-miterlimit="20" d="M1.894 12.32c-.712-1.908-.986-3.488-.868-4.973.1-1.188.58-2.213 1.43-3.059l2.333-2.325C5.457 1.33 6.218 1 7.01 1c.798 0 1.553.33 2.196.957.425.392.855.827 1.266 1.25.213.217.419.428.637.646l1.86 1.852c.68.672 1.036 1.449 1.036 2.238 0 .79-.362 1.567-1.036 2.238-.194.193-.387.386-.574.578-.53.541-1.08 1.094-1.667 1.623.419.964 1.017 1.908 1.91 3.034 1.766 2.157 3.613 3.835 5.647 5.122.206.13.437.248.687.372.2.1.411.206.617.324l2.234-2.225c.655-.653 1.423-1.001 2.222-1.001.798 0 1.56.348 2.196 1.006l3.75 3.737c1.342 1.337 1.342 3.09.013 4.469-.287.299-.587.59-.88.87-.431.417-.843.809-1.204 1.244a.133.133 0 0 1-.026.03C26.878 30.466 25.63 31 24.076 31c-.143 0-.28-.006-.424-.012-2.315-.15-4.392-1.02-5.946-1.754-4.081-1.97-7.657-4.755-10.627-8.292-2.446-2.928-4.093-5.67-5.185-8.622zm1.441-.51c1.036 2.785 2.603 5.383 4.93 8.175 2.827 3.369 6.233 6.023 10.115 7.895 1.429.677 3.332 1.473 5.379 1.603.105.006.218.013.324.013 1.104 0 1.96-.361 2.677-1.132.411-.491.867-.926 1.304-1.349.293-.28.568-.547.83-.827.761-.79.767-1.597.019-2.343l-3.763-3.742c-.243-.261-.63-.553-1.104-.553-.387 0-.78.192-1.143.553l-2.333 2.325c-.106.105-.43.422-.93.422-.2 0-.4-.05-.605-.155-.025-.013-.044-.025-.069-.037a7.588 7.588 0 0 0-.686-.373c-.269-.137-.556-.274-.824-.448-2.172-1.374-4.143-3.158-6.015-5.458-1.042-1.305-1.71-2.4-2.19-3.55-.007-.018-.013-.03-.019-.05-.125-.372-.206-.863.312-1.38l.03-.03c.6-.53 1.143-1.082 1.723-1.666.193-.193.387-.392.58-.584.388-.386.587-.777.587-1.163s-.2-.777-.586-1.162l-1.86-1.853c-.218-.224-.437-.442-.649-.66-.424-.428-.817-.832-1.235-1.217-.356-.361-.743-.541-1.123-.541-.388 0-.787.18-1.149.528L3.541 5.364a3.285 3.285 0 0 0-.992 2.113c-.1 1.25.144 2.623.786 4.333z"/></g></g></svg>