<svg xmlns="http://www.w3.org/2000/svg" width="24" height="30" viewBox="0 0 24 30"><g><g><path fill="#e56d00" d="M18.199 12.256c0 3.456-2.782 6.273-6.208 6.273s-6.208-2.823-6.208-6.279c0-3.455 2.782-6.272 6.208-6.272s6.208 2.823 6.208 6.278zm-1.488 0c0-2.626-2.12-4.768-4.72-4.768-2.6 0-4.72 2.142-4.72 4.768 0 2.627 2.114 4.77 4.72 4.77s4.72-2.143 4.72-4.77zm7.29-.14c0 .773-.074 1.546-.22 2.3-.018.117-.042.24-.079.388a11.983 11.983 0 0 1-.808 2.4c-1.227 2.927-3.93 7.481-9.792 12.397a1.717 1.717 0 0 1-2.199 0C5.035 24.679 2.332 20.13 1.1 17.179a11.672 11.672 0 0 1-.802-2.382c-.066-.264-.085-.405-.085-.405a12.382 12.382 0 0 1-.158-3.455C.625 4.917 5.576.215 11.566.007 11.706 0 11.85 0 11.99 0 18.606 0 23.988 5.438 24 12.115zm-1.502.005c0-5.984-4.92-10.82-10.879-10.611-5.248.184-9.58 4.302-10.084 9.574a10.918 10.918 0 0 0 .14 3.05c0 .013.006.025.006.038.006.03.025.128.06.288.165.73.402 1.436.712 2.111 1.178 2.817 3.76 7.144 9.39 11.87a.255.255 0 0 0 .153.055.241.241 0 0 0 .152-.055c5.63-4.72 8.206-9.047 9.379-11.845.315-.7.552-1.406.716-2.13a11.112 11.112 0 0 0 .255-2.345z"/></g></g></svg>